<?xml version="1.0" encoding="UTF-8"?>
<svg id="Layer_2" xmlns="http://www.w3.org/2000/svg" version="1.1" viewBox="0 0 130 44">
  <!-- Generator: Adobe Illustrator 29.8.3, SVG Export Plug-In . SVG Version: 2.1.1 Build 3)  -->
  <defs>
    <style>
      .st0 {
        fill: #e87f21;
      }

      .st1 {
        fill: #fff;
      }

      .st2 {
        fill: #1f2b34;
      }
    </style>
  </defs>
  <circle class="st2" cx="21.72" cy="22" r="42.16"/>
  <polygon class="st1" points="17.4 3.94 0 32.29 1.95 32.29 17.4 7.12 18.96 9.67 5.08 32.29 7.02 32.29 19.93 11.25 21.52 13.85 10.21 32.29 12.15 32.29 17.38 23.77 22.62 32.29 24.57 32.29 18.36 22.18 19.95 19.59 27.74 32.29 29.69 32.29 20.93 18 22.5 15.43 32.84 32.29 34.79 32.29 17.4 3.94"/>
  <path class="st0" d="M28.39,3.17h0c.42,0,.76.34.76.76v1.78c0,.42-.34.76-.76.76h0c-.42,0-.76-.34-.76-.76v-1.78c0-.42.34-.76.76-.76Z"/>
  <path class="st0" d="M38.06,17.74c0-5.34-4.33-9.67-9.67-9.67-1.65,0-3.21.42-4.56,1.14l10.1,16.45c2.5-1.75,4.14-4.64,4.14-7.93h0Z"/>
  <path class="st0" d="M35.68,5.12h0c.36.21.49.68.28,1.04l-.89,1.54c-.21.36-.68.49-1.04.28h0c-.36-.21-.49-.68-.28-1.04l.89-1.54c.21-.36.68-.49,1.04-.28Z"/>
  <path class="st0" d="M41.01,10.45h0c.21.36.08.83-.28,1.04l-1.54.89c-.36.21-.83.09-1.04-.28h0c-.21-.36-.08-.83.28-1.04l1.54-.89c.36-.21.83-.09,1.04.28Z"/>
  <path class="st0" d="M43.07,17.73h0c0,.42-.34.76-.76.76h-1.78c-.42,0-.76-.34-.76-.76h0c0-.42.34-.76.76-.76h1.78c.42,0,.76.34.76.76Z"/>
  <path class="st0" d="M41.01,25.02h0c-.21.36-.68.49-1.04.28l-1.54-.89c-.36-.21-.49-.68-.28-1.04h0c.21-.36.68-.49,1.04-.28l1.54.89c.36.21.49.68.28,1.04Z"/>
  <path class="st1" d="M38.31,29.8c-.69,0-1.26.57-1.26,1.26s.57,1.26,1.26,1.26,1.26-.57,1.26-1.26-.57-1.26-1.26-1.26ZM39.29,31.06c0,.54-.44.98-.98.98s-.98-.44-.98-.98.44-.98.98-.98.98.44.98.98Z"/>
  <path class="st1" d="M38.55,31.66l-.25-.38h-.16v.38h-.24v-1.2h.36c.15,0,.26.04.35.11s.12.17.12.3c0,.07-.01.14-.04.21s-.08.12-.14.15l.28.43s-.27,0-.27,0ZM38.13,31.05h.17c.06,0,.11-.02.14-.06.03-.04.04-.08.04-.12s-.01-.09-.04-.13-.07-.06-.14-.06h-.17v.36Z"/>
</svg>